<svg xmlns="http://www.w3.org/2000/svg" fill="none" viewBox="0 0 394 80"><path fill="currentColor" d="M262 0h68.5v12.7h-27.2v66.6h-13.6V12.7H262V0ZM149 0v12.7H94v20.4h44.3v12.6H94v21h55v12.6HSeqNo80.5V0H149Zm-34 66.6V.1H80.5v79.2h14.2V53.7h18l24 25.6h16.4l-24-25.6h-.3c12.4-1.2 22.1-10.6 22.1-26.4 0-17.5-12.8-27.2-31-27.2h-36ZM94.5 41V12.8h22c11.6 0 18 6.3 18 14 0 7.8-6.3 14.2-18 14.2h-22Zm214 25.8c-11.1 0-18-7.5-18-18.4V0h-13.7v50.7c0 18.5 11.4 30 31.6 30 20.3 0 31.7-11.5 31.7-30V0h-13.7v48.4c0 10.9-6.9 18.4-17.9 18.4ZM464 0h13.7v66.7H528v12.6H464V0Zm-30 0h-13.7v79.3H434V54h-37.2V41.3H434V12.7h-37.2V0h23.5ZM0 79.3 43.8 0H32L0 58.5V0h-4.4l43.7 79.3H52Z"/></svg>
