<svg fill="none" viewBox="0 0 283 64" xmlns="http://www.w3.org/2000/svg"><path d="M141 16c-11 0-19 7-19 18s9 18 20 18c7 0 13-3 16-7l-7-5c-2 3-6 4-9 4-5 0-9-3-10-7h28v-3c0-11-8-18-19-18m-9 15c1-4 4-7 9-7s8 3 9 7zm117-15c-11 0-19 7-19 18s9 18 20 18c7 0 13-3 16-7l-7-5c-2 3-6 4-9 4-5 0-9-3-10-7h28v-3c0-11-8-18-19-18m-9 15c1-4 4-7 9-7s8 3 9 7zm-39 3c0 6 4 10 10 10 4 0 7-2 8-4l7 5c-3 4-8 7-15 7-11 0-19-7-19-18s8-18 19-18c7 0 12 3 15 7l-7 5c-1-2-4-4-8-4-6 0-10 4-10 10m-68 18h9V0h-9zm-86 0h10V16h-10zm86-52a5 5 0 1 0 0 10 5 5 0 0 0 0-10m77 52h10V0h-10zM18 16l-9 34L0 16h-10l13 36h12l13-36zm45 36h10V0h-10v19c-3-3-7-5-12-5-10 0-18 8-18 18s8 18 18 18c5 0 9-2 12-5zm0-18c0 6-4 10-10 10s-10-4-10-10 4-10 10-10 10 4 10 10" fill="currentColor"/></svg>
